<svg xmlns="http://www.w3.org/2000/svg" viewBox="0 0 120 120" role="img" aria-labelledby="title">
  <title id="title">ambulance</title>
  <circle cx="60" cy="60" r="55" fill="#fff8eb"/>
  <g fill="none" stroke="#765445" stroke-width="3.5" stroke-linecap="round" stroke-linejoin="round">
    <ellipse cx="60" cy="106" rx="46" ry="4" fill="#eadbc5" stroke="none"/>
    <path d="M14 41 Q14 35 20 35H74L94 53 106 60V91H14Z" fill="#fff7e6"/>
    <path d="M70 43H73L90 58H70Z" fill="#9ec9e0" stroke-width="2.5"/>
    <path d="M15 77H104" stroke="#ef9a84" stroke-width="8"/>
    <path d="M66 38V87 M74 66H80" stroke-width="2.5"/>
    <rect x="43" y="26" width="18" height="9" rx="3" fill="#e97870" stroke-width="2.5"/>
    <path d="M35 52H43V44H51V52H59V60H51V68H43V60H35Z" fill="#85bfda" stroke="#6c9ab7" stroke-width="2"/>
    <rect x="98" y="64" width="8" height="8" rx="2" fill="#ffe49a" stroke-width="2"/>
    <circle cx="34" cy="92" r="12" fill="#6d6866"/><circle cx="87" cy="92" r="12" fill="#6d6866"/>
    <circle cx="34" cy="92" r="5" fill="#f8ead3" stroke="none"/><circle cx="87" cy="92" r="5" fill="#f8ead3" stroke="none"/>
  </g>
</svg>
