<svg xmlns="http://www.w3.org/2000/svg" viewBox="0 0 120 120" role="img" aria-labelledby="title">
  <title id="title">shorts</title>
  <circle cx="60" cy="60" r="55" fill="#fff8eb"/>
  <g fill="none" stroke="#765445" stroke-width="3.5" stroke-linecap="round" stroke-linejoin="round">
    <path d="M28 24 H92 L103 96 70 102 60 65 50 102 17 96Z" fill="#9abdd5"/>
    <path d="M28 24H92L93 37H27Z" fill="#bfd8e3"/>
    <path d="M32 38 Q33 56 22 62 M88 38 Q87 56 98 62 M60 38V65" stroke="#739dbd" stroke-width="2.5"/>
    <path d="M18 88 51 94 M69 94 102 88" stroke="#cbdfe6" stroke-width="5"/>
    <path d="M55 29H65 M53 40 60 44 68 40" stroke-width="2.5"/>
    <path d="M47 27V34 M73 27V34" stroke="#789db7" stroke-width="2"/>
  </g>
</svg>
